<svg xmlns="http://www.w3.org/2000/svg" viewBox="0 0 48 48"><circle cx="24" cy="24" r="24" fill="#fff"/><path d="M24 13c-6.1 0-11 4.9-11 11s4.9 11 11 11 11-4.9 11-11-4.9-11-11-11zm5.1 15.7c-.2.3-.6.4-.9.2-2.5-1.5-5.7-1.8-9.4-.9-.3.1-.7-.1-.8-.4-.1-.3.1-.7.4-.8 4-1 7.5-.7 10.3 1 .3.2.4.6.2.9zm1.3-2.8c-.2.3-.5.4-.8.2-2.9-1.8-7.3-2.3-10.7-1.1-.3.1-.7-.1-.8-.4-.1-.3.1-.7.4-.8 3.8-1.3 8.6-.7 11.9 1.2.3.2.4.6.2.9zm1.3-2.9c-3.4-2-9-2.2-12.2-1.1-.4.1-.8-.1-.9-.5-.1-.4.1-.8.5-.9 3.6-1.2 9.7-1 13.5 1.2.4.2.5.7.3 1-.2.3-.7.4-1 .2z" fill="#111"/></svg> 